<svg width="203px" height="117px" viewBox="0 0 203 117" version="1.1" xmlns="http://www.w3.org/2000/svg" xmlns:xlink="http://www.w3.org/1999/xlink">
    <!-- Generator: Sketch 49 (51002) - http://www.bohemiancoding.com/sketch -->
    <desc>Created with Sketch.</desc>
    <defs></defs>
    <g id="Page-1" stroke="none" stroke-width="1" fill="none" fill-rule="evenodd">
        <g id="Powerware-Home" transform="translate(-40.000000, -29.000000)">
            <g id="Logo" transform="translate(40.000000, 29.000000)">
                <g id="telescope" fill="#1D1D1B" fill-rule="nonzero">
                    <path d="M74.5954355,24.1979771 C71.0004676,25.1328062 67.5032808,26.4084393 64.1515944,28.0074703 C63.9866984,28.8481181 64.1874388,29.719094 64.7037975,30.4033779 C68.3898602,29.5297362 71.9896884,28.3269343 75.4597534,26.8095165 C75.538224,25.8580833 75.2263048,24.9156184 74.5954355,24.1979771 Z M93.4423672,9.46314511 C90.4942321,10.3258443 87.5932214,11.341493 84.7511707,12.5059478 C84.3430206,12.7455386 85.2073385,14.3987149 85.3994091,14.446633 C88.370679,13.6954866 91.2965203,12.7755565 94.1626321,11.6913392 C94.3066851,11.4277894 93.8505174,9.58294049 93.4663761,9.48710418 L93.4423672,9.46314511 Z M113.70582,36.5608606 C113.201635,34.164953 104.750526,8.81625004 103.093917,4.1681892 C101.437308,-0.479871633 96.9476565,-0.384035327 93.6824555,0.430573273 C87.7909959,2.15421778 82.0944648,4.48270727 76.6842037,7.37870545 C73.4910293,9.53502234 75.1956563,15.8123004 75.1956563,15.8123004 C72.6800083,17.1866993 70.0729457,18.3874654 67.3927864,19.4061618 C61.4385965,21.8020695 15.269616,40.9693307 14.7174129,41.376635 C14.1652098,41.7839393 14.429307,45.0663328 14.429307,45.2819644 C14.429307,45.4975961 13.6370156,45.4257189 13.4689538,45.2819644 C13.3008919,45.13821 11.8123445,40.6818218 11.8123445,40.6818218 C12.6468314,40.4137339 13.4513831,40.0604648 14.2132275,39.6276224 C13.543612,36.5880908 12.5202958,33.6370769 11.1641061,30.8346413 C7.33349242,32.1085307 3.60204151,33.6620819 0,35.4827022 C0.67913311,38.0231899 1.73951829,40.4465206 3.14515676,42.6704251 C3.55330687,42.8620977 6.1942782,41.712062 6.1942782,41.712062 C6.1942782,41.712062 7.89890514,46.2163684 8.04295813,46.5038773 C7.01622911,46.7900639 6.02548751,47.1919698 5.08987201,47.7018312 C5.4005445,50.4182198 6.00426527,53.0931852 6.89053427,55.6802036 C7.20264907,56.2791805 16.4940664,54.242659 16.4940664,54.242659 L17.2863578,55.5843673 C17.5264461,55.9916716 17.8865785,55.9437535 18.7989141,56.1354261 C19.7112496,56.3270987 40.863029,53.4999277 40.863029,53.4999277 C41.2417995,54.1807988 41.6753852,54.8298296 42.1595059,55.4406129 C42.855762,56.2791805 43.9601681,57.8365205 43.9601681,57.8365205 L26.6738104,99.333641 C25.6679497,99.3989153 24.705428,99.7664214 23.9127949,100.38784 C23.1473186,100.881719 22.7911689,101.813919 23.0328665,102.690998 C23.2745641,103.568077 24.0582857,104.187462 24.9691834,104.221293 C27.1299782,104.412965 30.1310819,104.868188 30.9233733,102.879584 C31.7156647,100.890981 29.5308612,99.5253136 29.5308612,99.5253136 C29.5308612,99.5253136 38.6302078,77.6746358 38.7742608,77.3631678 C38.9183138,77.0516999 48.3777929,81.8674742 48.3777929,81.8674742 L49.0260313,110.426693 C48.4824278,110.5593 47.9580016,110.760585 47.4654574,111.02567 C46.6834421,111.54089 46.1772249,112.381733 46.0886021,113.312671 C45.9999794,114.243609 46.338481,115.164534 47.0092896,115.817486 C49.1220666,117.51858 53.3716296,117.614416 54.0678857,114.571614 C54.4542664,112.81204 53.552828,111.022895 51.9070909,110.282939 C51.9070909,110.282939 51.330879,82.7060419 51.4509232,82.5622874 C51.5709673,82.418533 61.0544553,76.8839863 61.2945436,76.8839863 C61.5346319,76.8839863 72.6987379,98.9982139 72.6987379,98.9982139 C71.9312975,99.5092791 71.31066,100.211211 70.8980757,101.034735 C70.2498372,102.376444 70.3458726,105.467165 72.3386055,106.281773 C74.3313384,107.096382 79.5412545,106.88075 79.5412545,102.927502 C79.5270235,100.691409 77.8710799,98.8042814 75.651824,98.4950733 L53.6837444,56.9979528 C53.6837444,56.9979528 54.5960799,56.8062802 55.3883713,54.3624544 C55.8194837,52.5628084 55.7363059,50.6785873 55.148283,48.9237441 C56.9494392,48.5934767 58.769753,48.3774122 60.5982875,48.276849 C65.1599652,47.8695447 85.9035946,46.4799183 85.9035946,46.4799183 C85.9035946,46.4799183 87.8963275,48.5164398 88.3044776,48.8758259 C89.5191283,49.4629902 90.8827612,49.671703 92.2179169,49.4748028 C94.2586675,49.3310484 110.728725,44.6829875 112.337317,43.1256476 C113.870689,41.3157059 114.385354,38.8558392 113.70582,36.5848197 L113.70582,36.5608606 Z M4.32158944,40.7297399 C4.1295188,40.7297399 2.42489185,36.8483695 2.92907729,36.5369015 C5.22517375,35.5273512 7.58270557,34.6631138 9.98767337,33.9493213 C10.7480262,35.3038611 11.2372765,36.7929822 11.4282032,38.3338323 C9.13770647,39.3475842 6.75887361,40.1495785 4.32158944,40.7297399 Z M15.3656513,52.7092781 C13.0563883,53.2995206 10.6895589,53.6369384 8.30705526,53.7155594 C7.97461317,51.9852797 7.78988292,50.2299716 7.75485216,48.4685216 C9.99423511,48.020166 12.2666756,47.7557309 14.5493511,47.6778721 C15.0078391,49.2869113 15.2816946,50.9427149 15.3656513,52.6134418 L15.3656513,52.7092781 Z M75.1476386,100.819104 C76.1320006,100.819104 77.356451,102.616034 76.9002832,103.622316 C76.4441154,104.628597 73.9952148,105.131737 73.250941,104.02962 C72.7111612,103.376128 72.6329817,102.457479 73.0545995,101.722508 C73.4762173,100.987537 74.3096269,100.589658 75.1476386,100.723267 L75.1476386,100.819104 Z M48.1857223,78.656958 C46.8292055,78.0823198 45.5408373,77.3591145 44.3443094,76.5006411 C45.2777492,76.17855 46.1916277,75.8025563 47.0813161,75.3745645 C47.0813161,75.23081 46.7211836,72.9786569 46.4810953,72.9786569 C46.241007,72.9786569 40.6229407,74.1766107 40.4308701,74.0807744 C40.2387995,73.9849381 45.9288922,58.8188427 46.1929894,58.6511291 C46.4570865,58.4834156 47.4894662,59.1542697 47.4894662,59.1542697 C47.4894662,59.1542697 48.3297752,78.656958 48.1857223,78.656958 Z M44.5843977,53.8113957 C43.5233418,52.3544465 43.3280869,50.4410909 44.0730542,48.800603 C44.8180216,47.1601151 46.3884311,46.0452514 48.1857223,45.8809414 C50.7546671,45.3059235 53.7797797,48.0851764 52.8434353,52.8290735 C51.9070909,57.5729707 46.38506,56.9021165 44.5843977,53.8113957 Z M59.6859519,73.3859612 C59.2778018,73.3859612 52.4833029,72.3796799 52.2912322,72.7390661 C52.0991616,73.0984522 51.6910115,74.3443242 51.9310998,74.4880787 C53.9666002,74.7864507 55.9858663,75.1862685 57.981325,75.6860325 C55.6663682,76.9454246 53.2584969,78.0267213 50.7786759,78.9205078 C50.6346229,78.6809171 50.1304375,59.5136559 50.2744905,59.250106 C50.7320992,58.8783143 51.2642402,58.6087102 51.8350645,58.4594565 C52.1471793,58.603211 60.0941021,73.3620021 59.6859519,73.4817975 L59.6859519,73.3859612 Z M82.3983053,42.8141796 C81.4219582,40.1057219 80.2504686,37.4713288 78.8930161,34.9316434 C78.3888307,34.9316434 77.4524863,35.2431114 77.4524863,35.5306203 C77.4524863,35.8181292 80.5016077,43.1256476 80.1654841,43.1256476 C79.8293605,43.1256476 78.4608572,43.3173202 78.4608572,43.3173202 C77.4884427,40.8552226 76.365932,38.4548272 75.0996209,36.1295972 C74.7394885,36.1295972 73.3469763,36.5848197 73.3469763,36.8723286 C73.3469763,37.1598375 76.1560095,43.269402 75.93993,43.269402 L73.8991794,43.4131565 C72.8345652,41.3481553 71.6480423,39.3480472 70.3458726,37.4233874 C69.9857401,37.4233874 68.4011573,37.926528 68.4971926,38.3338323 C69.4593798,40.0585167 70.3094454,41.8431563 71.0421286,43.6767063 C69.9523362,43.8411114 68.8542478,43.9450937 67.7529189,43.9881743 C67.0840497,42.4739718 66.2805415,41.0226357 65.3520359,39.6515815 C64.9438858,39.6515815 63.5993913,39.6515815 63.5993913,40.1547221 C63.5993913,40.6578627 65.3040182,44.203806 65.1599652,44.2996423 C65.0159123,44.3954786 54.5000446,45.9049004 54.5000446,45.9049004 C54.5000446,45.9049004 52.6993823,42.2631208 46.6971748,43.7485835 C43.5429179,44.2251964 41.267271,47.0146049 41.439241,50.1935751 C41.1991527,50.3373296 24.176892,52.4457283 23.0244682,52.5894828 C21.8720443,52.7332372 21.3198412,52.9488689 21.1757883,52.5894828 C20.1242164,49.6180781 19.3211747,46.5648297 18.7749052,43.4610746 C19.2550818,42.8381386 76.3960978,19.5019982 76.6842037,19.9572206 C76.9723097,20.4124431 85.135312,42.1193663 84.7991884,42.4787525 C84.4630647,42.8381386 82.3983053,42.8141796 82.3983053,42.8141796 Z M108.111763,40.7297399 C107.548409,37.6140606 106.745748,34.5462372 105.710879,31.5534136 C105.158676,31.361741 103.8622,31.8648816 104.006253,32.2003087 C104.951963,35.1434733 105.705816,38.1446296 106.263083,41.1849624 C106.022994,41.5922667 104.102288,42.4308343 104.05427,42.1912436 C104.006253,41.9516528 101.845458,32.0086361 101.149202,31.6492499 C100.452946,31.2898638 99.2525042,32.1523905 99.1564688,32.7034493 C99.0604335,33.254508 102.253608,42.2870799 101.917484,42.5985479 C101.335037,42.9106301 100.681739,43.0674268 100.020787,43.0537703 C100.020787,42.9100159 97.3317977,33.0149173 96.9236476,32.8232447 C96.5154975,32.6315721 94.6668176,33.1826308 94.6668176,33.4701397 C94.6668176,33.7576487 98.2201245,43.2454429 98.0280538,43.5089928 C97.3652613,43.876053 96.6248035,44.0813095 95.8672591,44.1079697 C95.8672591,43.9642152 92.4580052,33.5180579 92.1218816,33.4222216 C91.785758,33.3263853 90.0331133,33.6138942 90.081131,34.1170348 C90.1291487,34.6201754 93.6824555,44.2996423 93.3223231,44.3954786 C92.9621906,44.4913149 91.4736432,45.1861281 91.1615284,44.8986192 C90.8494136,44.6111103 80.2615194,17.273804 79.757334,15.3331188 C79.2240968,13.6290984 79.2918828,11.7942117 79.9494047,10.1339992 C84.8888456,7.88620098 89.9646682,5.94970248 95.1469942,4.33590274 C96.0593297,4.19214828 97.9560273,3.78484398 98.6522834,5.77344733 C99.3485395,7.76205068 110.200531,39.1723999 109.912425,39.7713769 C109.624319,40.3703538 108.111763,40.7297399 108.111763,40.7297399 Z" id="Shape"></path>
                </g>
                <text id="Find-it" font-family="SignPainter-HouseScript, SignPainter" font-size="48" font-style="condensed" font-weight="normal" letter-spacing="0.0449999981" fill="#000000">
                    <tspan x="105" y="113">Find it</tspan>
                </text>
            </g>
        </g>
    </g>
</svg>
